<svg xmlns="http://www.w3.org/2000/svg" viewBox="64 4 42 49" shape-rendering="crispEdges" fill="#8a8678">
<rect x="84" y="6" width="2" height="2"/>
<rect x="82" y="8" width="6" height="2"/>
<rect x="81" y="10" width="8" height="2"/>
<rect x="80" y="12" width="10" height="3"/>
<rect x="78" y="15" width="14" height="2"/>
<rect x="75" y="17" width="20" height="2"/>
<rect x="72" y="19" width="26" height="2"/>
<rect x="71" y="21" width="28" height="2"/>
<rect x="72" y="23" width="2" height="11"/>
<rect x="76" y="23" width="2" height="11"/>
<rect x="80" y="23" width="2" height="11"/>
<rect x="84" y="23" width="2" height="11"/>
<rect x="88" y="23" width="2" height="11"/>
<rect x="92" y="23" width="2" height="11"/>
<rect x="96" y="23" width="2" height="11"/>
<rect x="70" y="34" width="30" height="3"/>
<rect x="82" y="35" width="6" height="2" fill="#fbfaf6"/>
<rect x="69" y="37" width="32" height="2"/>
<rect x="68" y="39" width="34" height="2"/>
<rect x="67" y="41" width="36" height="2"/>
<rect x="66" y="43" width="38" height="8"/>
</svg>
